<svg width="48" height="48" viewBox="0 0 48 48" fill="none" xmlns="http://www.w3.org/2000/svg">
<circle r="24" transform="matrix(1 -8.74228e-08 -8.74228e-08 -1 24 24)" fill="white"/>
<path d="M13.7148 25C13.1626 25 12.7148 24.5523 12.7148 24C12.7148 23.4477 13.1626 23 13.7148 23L13.7148 25ZM34.551 23.2929C34.9415 23.6834 34.9415 24.3166 34.551 24.7071L28.187 31.0711C27.7965 31.4616 27.1633 31.4616 26.7728 31.0711C26.3823 30.6805 26.3823 30.0474 26.7728 29.6569L32.4297 24L26.7728 18.3431C26.3823 17.9526 26.3823 17.3195 26.7728 16.9289C27.1633 16.5384 27.7965 16.5384 28.187 16.9289L34.551 23.2929ZM13.7148 23L33.8439 23L33.8439 25L13.7148 25L13.7148 23Z" fill="#1E1B1B"/>
</svg>
