<svg width="62" height="62" viewBox="0 0 62 62" fill="none" xmlns="http://www.w3.org/2000/svg">
<g filter="url(#filter0_i_482_1323)">
<circle r="31" transform="matrix(-1 0 0 1 31 31)" fill="#1E1B1B"/>
</g>
<path d="M44 31C44.5523 31 45 31.4477 45 32C45 32.5523 44.5523 33 44 33V31ZM17.2929 32.7071C16.9024 32.3166 16.9024 31.6834 17.2929 31.2929L23.6569 24.9289C24.0474 24.5384 24.6805 24.5384 25.0711 24.9289C25.4616 25.3195 25.4616 25.9526 25.0711 26.3431L19.4142 32L25.0711 37.6569C25.4616 38.0474 25.4616 38.6805 25.0711 39.0711C24.6805 39.4616 24.0474 39.4616 23.6569 39.0711L17.2929 32.7071ZM44 33H18V31H44V33Z" fill="#F2F2F2"/>
<defs>
<filter id="filter0_i_482_1323" x="0" y="0" width="62" height="66" filterUnits="userSpaceOnUse" color-interpolation-filters="sRGB">
<feFlood flood-opacity="0" result="BackgroundImageFix"/>
<feBlend mode="normal" in="SourceGraphic" in2="BackgroundImageFix" result="shape"/>
<feColorMatrix in="SourceAlpha" type="matrix" values="0 0 0 0 0 0 0 0 0 0 0 0 0 0 0 0 0 0 127 0" result="hardAlpha"/>
<feOffset dy="4"/>
<feGaussianBlur stdDeviation="2"/>
<feComposite in2="hardAlpha" operator="arithmetic" k2="-1" k3="1"/>
<feColorMatrix type="matrix" values="0 0 0 0 0 0 0 0 0 0 0 0 0 0 0 0 0 0 0.25 0"/>
<feBlend mode="normal" in2="shape" result="effect1_innerShadow_482_1323"/>
</filter>
</defs>
</svg>
